<svg preserveAspectRatio="none" overflow="visible" style="display: block;" width="152.018" height="104.209" viewBox="0 0 152.018 104.209" fill="none" xmlns="http://www.w3.org/2000/svg">
<g id="Group 2">
<g id="Rectangle 29" filter="url(#filter0_d_0_4)">
<rect x="5.78182" y="19.2545" width="140.455" height="77.7273" rx="4.33636" fill="#FDFAF3"/>
</g>
<g id="Rectangle 30" filter="url(#filter1_i_0_4)">
<rect x="11.2364" y="24.7091" width="129.545" height="66.8182" rx="4.33636" fill="#FDFAF3"/>
</g>
<g id="Group 1">
<path id="Vector 4" d="M47.321 54.0369L18.356 75.7607C17.3078 76.5469 16.6909 77.7806 16.6909 79.0909V83.2535C16.6909 85.5525 18.5546 87.4162 20.8536 87.4162H131.165C133.464 87.4162 135.327 85.5525 135.327 83.2535V77.0095H80.671C79.6773 77.0095 78.7164 76.6541 77.962 76.0074L52.5277 54.2065C51.0463 52.9368 48.8819 52.8663 47.321 54.0369Z" fill="#773C01"/>
<path id="Vector 6" d="M131.165 23.1818H78.1263C75.8274 23.1818 73.9637 25.0455 73.9637 27.3445V67.9331C73.9637 68.5459 74.0989 69.1511 74.3599 69.7056L79.4182 80.4546H83.5091H135.327V27.3445C135.327 25.0455 133.464 23.1818 131.165 23.1818Z" fill="#FF8000"/>
<path id="Vector 5" d="M47.3732 58.1606L16.691 81.1722V25.0844C16.691 23.7137 17.3658 22.4308 18.4954 21.6542L47.4697 1.73441C48.9704 0.702636 50.9677 0.766248 52.3997 1.89144L77.5504 21.6527C78.5491 22.4374 79.1349 23.635 79.1412 24.9051L79.4183 80.4545L52.5187 58.2788C51.0363 57.0567 48.9101 57.0079 47.3732 58.1606Z" fill="#C26100"/>
<path id="Vector 7" d="M48.9015 57.0144L16.691 81.1722V25.0844C16.691 23.7137 17.3658 22.4308 18.4954 21.6542L47.8563 1.46862C48.761 0.846588 49.9924 1.49434 49.9924 2.59231V54.8325C49.9924 55.691 49.5883 56.4993 48.9015 57.0144Z" fill="#FF8000"/>
</g>
<circle id="Ellipse 2" cx="106.691" cy="51.8182" r="12.2727" transform="rotate(-180 106.691 51.8182)" stroke="white" stroke-width="2.72727"/>
<path id="Vector 9" d="M56.7364 33.7273L72.0999 46.7273" stroke="#FDFAF3" stroke-width="2.72727" stroke-linecap="round"/>
</g>
<defs>
<filter id="filter0_d_0_4" x="0" y="14.9182" width="152.018" height="89.2909" filterUnits="userSpaceOnUse" color-interpolation-filters="sRGB">
<feFlood flood-opacity="0" result="BackgroundImageFix"/>
<feColorMatrix in="SourceAlpha" type="matrix" values="0 0 0 0 0 0 0 0 0 0 0 0 0 0 0 0 0 0 127 0" result="hardAlpha"/>
<feOffset dy="1.44545"/>
<feGaussianBlur stdDeviation="2.89091"/>
<feComposite in2="hardAlpha" operator="out"/>
<feColorMatrix type="matrix" values="0 0 0 0 0 0 0 0 0 0 0 0 0 0 0 0 0 0 0.25 0"/>
<feBlend mode="normal" in2="BackgroundImageFix" result="effect1_dropShadow_0_4"/>
<feBlend mode="normal" in="SourceGraphic" in2="effect1_dropShadow_0_4" result="shape"/>
</filter>
<filter id="filter1_i_0_4" x="11.2364" y="24.7091" width="129.545" height="66.8182" filterUnits="userSpaceOnUse" color-interpolation-filters="sRGB">
<feFlood flood-opacity="0" result="BackgroundImageFix"/>
<feBlend mode="normal" in="SourceGraphic" in2="BackgroundImageFix" result="shape"/>
<feColorMatrix in="SourceAlpha" type="matrix" values="0 0 0 0 0 0 0 0 0 0 0 0 0 0 0 0 0 0 127 0" result="hardAlpha"/>
<feOffset/>
<feGaussianBlur stdDeviation="2.89091"/>
<feComposite in2="hardAlpha" operator="arithmetic" k2="-1" k3="1"/>
<feColorMatrix type="matrix" values="0 0 0 0 0 0 0 0 0 0 0 0 0 0 0 0 0 0 0.25 0"/>
<feBlend mode="normal" in2="shape" result="effect1_innerShadow_0_4"/>
</filter>
</defs>
</svg>
